<svg xmlns="http://www.w3.org/2000/svg" viewBox="0 0 945.09 408.04"><title>hypegen-logo-dark</title><g id="Layer_2" data-name="Layer 2"><g id="Layer_1-2" data-name="Layer 1"><path d="M494.16,182.9a23.37,23.37,0,0,0-9.53,1.87,28.75,28.75,0,0,0-7.37,4.62A25.37,25.37,0,0,0,469.39,202h42.46a10.14,10.14,0,0,0,.2-2v-2a14.2,14.2,0,0,0-4.62-10.81Q502.81,182.91,494.16,182.9Z"/><path d="M612.7,186.44A25.6,25.6,0,0,0,601.1,189a26.15,26.15,0,0,0-8.65,6.88,32.26,32.26,0,0,0-5.5,10,36.51,36.51,0,0,0-2,12,26,26,0,0,0,1.18,7.86,17.7,17.7,0,0,0,3.74,6.58,18.35,18.35,0,0,0,6.29,4.52,22,22,0,0,0,9,1.67,25.3,25.3,0,0,0,11.3-2.56,27.33,27.33,0,0,0,8.95-7,33.21,33.21,0,0,0,5.8-10,34.13,34.13,0,0,0,2.06-11.89q0-9.44-5.6-15T612.7,186.44Z"/><path d="M738.51,182.9a23.37,23.37,0,0,0-9.53,1.87,28.75,28.75,0,0,0-7.37,4.62A25.37,25.37,0,0,0,713.74,202h42.46a10.14,10.14,0,0,0,.2-2v-2a14.2,14.2,0,0,0-4.62-10.81Q747.16,182.91,738.51,182.9Z"/><path d="M373.26,186.84a24.29,24.29,0,0,0-11,2.56,28.3,28.3,0,0,0-8.85,6.88,33.88,33.88,0,0,0-8.06,22q0,9,5.5,14.84t15.14,5.8a25.33,25.33,0,0,0,11.3-2.46,25.83,25.83,0,0,0,8.55-6.68,31,31,0,0,0,5.5-9.93,37.19,37.19,0,0,0,2-12.19,22.1,22.1,0,0,0-5.11-14.84Q383.09,186.84,373.26,186.84Z"/><path d="M0,0V408H945.09V0ZM137,261.73l10.22-58.58H93.13L82.71,261.73H50.08L74.65,122.55h32.63l-9.44,52.88h54.26l9.24-52.88h32.83L169.6,261.73Zm102.52,28.5a50.22,50.22,0,0,1-9.24,10.22,35.68,35.68,0,0,1-11.5,6.29,48,48,0,0,1-15.14,2.16,54,54,0,0,1-16.12-2.16l4.72-26a24.16,24.16,0,0,0,9.24,1.77q6.88,0,10.71-3.44a38.08,38.08,0,0,0,7.37-9.73l4.72-8.06-22.61-97.51H236l9.83,64.09h.39l32.44-64.09h33.42L248,276.48Q243.71,284.14,239.49,290.24Zm181.25-63a59.87,59.87,0,0,1-11.3,19.36,54.29,54.29,0,0,1-17.2,13.07,49.13,49.13,0,0,1-21.72,4.82q-10.81,0-18.68-4A27.64,27.64,0,0,1,340,249.55h-.39l-10.22,59.37H298l25.56-145.08h29.88L351,177.4h.59a38.63,38.63,0,0,1,13.86-11.7,39.72,39.72,0,0,1,18.18-4.23,45.27,45.27,0,0,1,17.3,3.15,36.92,36.92,0,0,1,13,8.75A37.31,37.31,0,0,1,422,186.74a50,50,0,0,1,2.75,16.81A69,69,0,0,1,420.74,227.23Zm118.54-16.12a87.41,87.41,0,0,1-1.87,10.12H467.23A7.23,7.23,0,0,0,467,223a14.48,14.48,0,0,0,1.87,7.37,17.87,17.87,0,0,0,4.91,5.5,22.59,22.59,0,0,0,6.88,3.44,26.92,26.92,0,0,0,8,1.18,29.93,29.93,0,0,0,13.17-2.75,35.41,35.41,0,0,0,10.22-7.47l19.86,15.53a56.43,56.43,0,0,1-21,14.45,69.48,69.48,0,0,1-25,4.42,60.94,60.94,0,0,1-19-2.85,43.7,43.7,0,0,1-15.24-8.45,39.57,39.57,0,0,1-10.22-13.86,45.32,45.32,0,0,1-3.74-18.87,62,62,0,0,1,4.42-23.49,59,59,0,0,1,12.19-19,56.06,56.06,0,0,1,18.58-12.68,60,60,0,0,1,23.79-4.62,53.6,53.6,0,0,1,17.59,2.75,38.79,38.79,0,0,1,13.66,8,35.34,35.34,0,0,1,8.85,12.88A46.37,46.37,0,0,1,540,202.17,73.51,73.51,0,0,1,539.28,211.11Zm116.48,41.58a101.15,101.15,0,0,1-7.08,24.08,54.8,54.8,0,0,1-12.19,17.59,49.85,49.85,0,0,1-18.28,10.81A77.12,77.12,0,0,1,593,308.91a84.47,84.47,0,0,1-13.27-1.08,91,91,0,0,1-13.27-3.15,75.71,75.71,0,0,1-12.29-5.11,40.66,40.66,0,0,1-9.93-7.18L562,270.19A38.38,38.38,0,0,0,576,279.92a43.86,43.86,0,0,0,16.81,3.44,37.39,37.39,0,0,0,13.27-2.06,25.72,25.72,0,0,0,9.14-5.8,28.23,28.23,0,0,0,5.9-8.65A52.26,52.26,0,0,0,624.5,256l1.38-6.49h-.59q-4.13,5.31-12.09,9.24a40.06,40.06,0,0,1-18,3.93,47,47,0,0,1-17.5-3,37.09,37.09,0,0,1-13-8.45,35.74,35.74,0,0,1-8.06-12.88,47.39,47.39,0,0,1-2.75-16.51,68.09,68.09,0,0,1,4-23.59A61,61,0,0,1,569.16,179a52,52,0,0,1,17.1-13,50.41,50.41,0,0,1,21.92-4.72,40.65,40.65,0,0,1,18.58,4,27.76,27.76,0,0,1,12.09,11.5h.59l2.16-13h29.68Zm127.88-41.58a87.41,87.41,0,0,1-1.87,10.12H711.58a7.23,7.23,0,0,0-.2,1.77,14.48,14.48,0,0,0,1.87,7.37,17.87,17.87,0,0,0,4.91,5.5,22.59,22.59,0,0,0,6.88,3.44,26.92,26.92,0,0,0,8,1.18,29.93,29.93,0,0,0,13.17-2.75,35.41,35.41,0,0,0,10.22-7.47l19.86,15.53a56.43,56.43,0,0,1-21,14.45,69.48,69.48,0,0,1-25,4.42,60.94,60.94,0,0,1-19-2.85,43.7,43.7,0,0,1-15.24-8.45,39.57,39.57,0,0,1-10.22-13.86,45.32,45.32,0,0,1-3.74-18.87,62,62,0,0,1,4.42-23.49,59,59,0,0,1,12.19-19,56.07,56.07,0,0,1,18.58-12.68,60,60,0,0,1,23.79-4.62,53.6,53.6,0,0,1,17.59,2.75,38.79,38.79,0,0,1,13.66,8,35.34,35.34,0,0,1,8.85,12.88,46.37,46.37,0,0,1,3.15,17.69A73.51,73.51,0,0,1,783.63,211.11Zm119-14.74a34.56,34.56,0,0,1-.79,5.21l-10.62,60.16H859.81L869,208.8a39,39,0,0,0,1-8.24,15.15,15.15,0,0,0-2.85-9.31q-2.85-3.82-10.12-3.82a17.57,17.57,0,0,0-7.76,1.67,19.79,19.79,0,0,0-6.09,4.61,24.41,24.41,0,0,0-4.33,6.86,38.49,38.49,0,0,0-2.46,8.24L827,261.73H795.52l13.56-77.65q.78-3.73,1.67-9.63T812,163.83h30.08q-.2,2.36-.69,6.68t-.88,7.47h.39a38.08,38.08,0,0,1,12.58-12,34.46,34.46,0,0,1,18.09-4.72,38.08,38.08,0,0,1,14.15,2.36,26.43,26.43,0,0,1,9.73,6.49,25.5,25.5,0,0,1,5.6,9.53,36.12,36.12,0,0,1,1.77,11.3Q902.86,193.72,902.66,196.37Z"/></g></g></svg>